# Blender 4.0.2
# www.blender.org
mtllib tree_bottom.mtl
o Cube.004
v 0.120425 0.048944 -0.102374
v -0.089840 0.073160 0.108903
v 0.120553 2.163667 0.108903
v -0.090723 2.163667 0.108903
v -0.090723 2.163667 -0.102374
v 0.073294 -0.132750 -0.102374
v 0.073294 -0.132750 0.108903
v -0.130948 -0.078686 0.108903
v -0.130948 -0.078686 -0.102374
v 0.120553 2.163667 -0.102374
v 0.120436 0.048921 0.108903
v -0.090723 0.269945 0.108903
v -0.090599 0.070432 -0.102374
vn -0.0000 1.0000 -0.0000
vn -0.2559 -0.9667 -0.0000
vn -1.0000 -0.0045 0.0037
vn 1.0000 -0.0001 -0.0001
vn -0.0000 -0.0000 1.0000
vn -1.0000 -0.0000 -0.0000
vn -0.0000 -0.0000 -1.0000
vn 0.9680 -0.2511 -0.0001
vn -0.9653 0.2613 0.0001
vn 1.0000 -0.0001 -0.0000
vn -1.0000 -0.0001 -0.0005
vn 0.9679 -0.2512 -0.0000
vn -0.9653 0.2612 -0.0000

vt 0.000000 0.000000

s 0
usemtl bark
f 4/1/1 10/1/1 5/1/1
f 7/1/2 9/1/2 6/1/2
f 13/1/3 2/1/3 12/1/3
f 11/1/4 1/1/4 10/1/4
f 4/1/5 11/1/5 3/1/5
f 5/1/6 12/1/6 4/1/6
f 10/1/7 13/1/7 5/1/7
f 11/1/8 6/1/8 1/1/8
f 2/1/5 7/1/5 11/1/5
f 13/1/9 8/1/9 2/1/9
f 13/1/7 6/1/7 9/1/7
f 4/1/1 3/1/1 10/1/1
f 7/1/2 8/1/2 9/1/2
f 11/1/5 12/1/5 2/1/5
f 10/1/7 1/1/7 13/1/7
f 3/1/10 11/1/10 10/1/10
f 4/1/5 12/1/5 11/1/5
f 5/1/11 13/1/11 12/1/11
f 11/1/12 7/1/12 6/1/12
f 2/1/5 8/1/5 7/1/5
f 13/1/13 9/1/13 8/1/13
f 13/1/7 1/1/7 6/1/7